:version 1.10
:name ASF
:units
  mass 1
  length 1
  angle deg
:documentation
  ASF file generated by Kaydara
:root
  axis xyz
  order  tx ty tz rx ry rz
  position 0 0 0
  orientation 0 0 0
:bonedata
  begin
    id 1
    name RightUpLegDummy
    direction -0.65628 -0.754516 0.00165102
    length 4.76918
    axis 0 0 0 xyz
  end
  begin
    id 2
    name RightUpLeg
    direction -0.145584 -0.923362 0.355256
    length 17.9961
    axis -24.7611 -13.1006 1.78531 xyz
    dof rx ry rz
  end
  begin
    id 3
    name RightLeg
    direction 0.263379 0.172355 -0.949171
    length 13.3386
    axis 89.6202 -21.1929 12.3855 xyz
    dof rx ry rz
  end
  begin
    id 4
    name RightFoot
    direction 0.224283 -0.968777 -0.105675
    length 5.86697
    axis 56.995 -39.6905 17.3365 xyz
    dof rx ry rz
  end
  begin
    id 5
    name RightToes
    direction -0.0806345 -0.9037 0.420506
    length 4.75197
    axis 146.825 -39.7828 17.6019 xyz
    dof rx ry rz
  end
  begin
    id 6
    name SpineDummy
    direction -3.39852e-014 1 9.33296e-014
    length 8.13779
    axis 0 0 0 xyz
  end
  begin
    id 7
    name Spine
    direction -0.156609 0.733703 0.661176
    length 7.14978
    axis 41.2365 5.68757 17.0844 xyz
    dof rx ry rz
  end
  begin
    id 8
    name Spine1
    direction 0 0 0
    length 0
    axis 42.8809 47.8308 -3.36039 xyz
    dof rx ry rz
  end
  begin
    id 9
    name HEadDummy
    direction 0.546431 0.701947 0.456819
    length 3.55512
    axis 42.8809 47.8308 -3.36039 xyz
  end
  begin
    id 10
    name HEad
    direction 0.23444 0.828559 0.508457
    length 7.35827
    axis 51.1864 49.2662 27.4903 xyz
    dof rx ry rz
  end
  begin
    id 11
    name LeftShoulder1Dummy
    direction 0.431183 0.475873 -0.766568
    length 2.49352
    axis 42.8809 47.8308 -3.36039 xyz
  end
  begin
    id 12
    name LeftShoulder1
    direction 0.268187 -0.383402 -0.883786
    length 4.48604
    axis -119.517 0.106469 35.1736 xyz
    dof rx ry rz
  end
  begin
    id 13
    name LeftArm
    direction 0.380567 -0.703221 -0.600541
    length 10.1142
    axis -5.41825 36.2925 7.8293 xyz
    dof rx ry rz
  end
  begin
    id 14
    name LeftForeArm
    direction 0.541071 -0.732356 -0.413396
    length 9.39839
    axis 4.65387 33.7604 7.81644 xyz
    dof rx ry rz
  end
  begin
    id 15
    name LeftHand
    direction 0.847511 -0.389379 -0.360707
    length 3.66142
    axis 7.65593 21.1436 -24.6758 xyz
    dof rx ry rz
  end
  begin
    id 16
    name RightShoulderDummy
    direction -0.692546 0.541855 0.476208
    length 2.49352
    axis 42.8809 47.8308 -3.36039 xyz
  end
  begin
    id 17
    name RightShoulder
    direction -0.870808 -0.316653 0.376065
    length 4.48602
    axis 141.571 51.133 -100.254 xyz
    dof rx ry rz
  end
  begin
    id 18
    name RightArm
    direction 0.366897 -0.87275 0.322015
    length 10.1142
    axis 92.3258 71.2036 138.917 xyz
    dof rx ry rz
  end
  begin
    id 19
    name RightForeArm
    direction 0.702487 -0.694568 0.155197
    length 9.39835
    axis 153.863 41.5092 -176.604 xyz
    dof rx ry rz
  end
  begin
    id 20
    name RightHand
    direction 0.79502 -0.601276 0.0800636
    length 3.66142
    axis 154.247 4.59222 142.9 xyz
    dof rx ry rz
  end
  begin
    id 21
    name LeftUpLegDummy
    direction 0.65628 -0.754516 0.00165102
    length 4.76919
    axis 0 0 0 xyz
  end
  begin
    id 22
    name LeftUpLeg
    direction -0.1277 -0.689368 0.713067
    length 17.9961
    axis -48.3385 -17.8675 0.791927 xyz
    dof rx ry rz
  end
  begin
    id 23
    name LeftLeg
    direction 0.109849 -0.991246 -0.0732378
    length 13.3386
    axis -2.05791 -7.30784 1.72042 xyz
    dof rx ry rz
  end
  begin
    id 24
    name LeftFoot
    direction 0.0448355 -0.272614 0.961078
    length 5.86697
    axis -18.7733 -7.89606 10.2113 xyz
    dof rx ry rz
  end
  begin
    id 25
    name LeftToes
    direction -0.18506 0.293668 0.937823
    length 4.75197
    axis 71.2267 -7.89606 10.2113 xyz
    dof rx ry rz
  end
:hierarchy
  begin
    root RightUpLegDummy SpineDummy LeftUpLegDummy
    RightUpLegDummy RightUpLeg
    RightUpLeg RightLeg
    RightLeg RightFoot
    RightFoot RightToes
    SpineDummy Spine
    Spine Spine1
    Spine1 HEadDummy LeftShoulder1Dummy RightShoulderDummy
    HEadDummy HEad
    LeftShoulder1Dummy LeftShoulder1
    LeftShoulder1 LeftArm
    LeftArm LeftForeArm
    LeftForeArm LeftHand
    RightShoulderDummy RightShoulder
    RightShoulder RightArm
    RightArm RightForeArm
    RightForeArm RightHand
    LeftUpLegDummy LeftUpLeg
    LeftUpLeg LeftLeg
    LeftLeg LeftFoot
    LeftFoot LeftToes
  end

:SAMPLES-PER-SECOND 30
:FULLY-SPECIFIED
:DEGREES
149
root  -2.07365 36.0171 56.9488 -17.4008 13.3841 7.79449
RightUpLeg  1.4248 8.48755 2.38922
RightLeg  -23.0519 -28.2992 1.50655
RightFoot  16.2139 2.71649 -11.6764
RightToes  -1.27222e-014 -6.36111e-015 6.36111e-015
Spine  -18.3636 -17.8175 -13.309
Spine1  23.6937 -11.75 28.9162
HEad  -9.3061 -14.8536 -16.0667
LeftShoulder1  6.36111e-015 -1.33558e-015 6.49777e-015
LeftArm  30.0618 -10.643 -40.1686
LeftForeArm  -4.54908 -40.6569 3.86023
LeftHand  -0.46944 0.239755 -6.60169
RightShoulder  -4.77083e-015 -6.36111e-015 -3.18055e-015
RightArm  35.6235 -22.793 -6.22594
RightForeArm  -13.1348 0.831526 -12.1446
RightHand  0.690052 -0.303155 -4.76362
LeftUpLeg  24.2606 26.3841 3.73549
LeftLeg  2.30136 -7.63975 -1.05477
LeftFoot  10.5652 -0.789341 1.92673
LeftToes  9.54166e-015 4.2066e-011 -8.07781e-011
150
root  -2.1551 36.5419 57.3828 -16.9275 11.4421 8.5866
RightUpLeg  5.88232 11.2312 2.37121
RightLeg  -31.7751 -30.0164 4.69376
RightFoot  14.3396 3.92252 -13.2539
RightToes  -1.27222e-014 -6.36111e-015 6.36111e-015
Spine  -19.3019 -16.5877 -13.8693
Spine1  20.0458 -10.793 29.1119
HEad  -3.32248 -14.7434 -15.8514
LeftShoulder1  6.36111e-015 -1.33558e-015 6.49777e-015
LeftArm  33.2483 -10.1604 -42.8926
LeftForeArm  -5.09765 -38.1625 3.25866
LeftHand  -1.29059 -1.59268 -10.0064
RightShoulder  -4.77083e-015 -6.36111e-015 -3.18055e-015
RightArm  35.4644 -24.1438 -5.0564
RightForeArm  -13.698 0.834769 -12.3492
RightHand  -0.217696 1.62451 -0.513249
LeftUpLeg  25.9609 26.1271 3.78932
LeftLeg  -0.501063 -6.98316 -0.954802
LeftFoot  11.1996 -0.079565 0.138518
LeftToes  9.54166e-015 4.2066e-011 -8.07781e-011
151
root  -2.23368 37.0873 57.7731 -16.1879 9.25072 9.16947
RightUpLeg  10.831 14.4711 2.24567
RightLeg  -44.4813 -30.5117 9.75053
RightFoot  13.2566 4.67531 -14.3283
RightToes  -1.27222e-014 -6.36111e-015 6.36111e-015
Spine  -21.1299 -15.1232 -13.6774
Spine1  17.2943 -9.7855 28.3868
HEad  1.96308 -14.0088 -15.9351
LeftShoulder1  6.36111e-015 -1.33558e-015 6.49777e-015
LeftArm  34.4379 -7.57242 -42.8906
LeftForeArm  -6.42067 -36.1836 3.10152
LeftHand  -1.87654 -2.96371 -13.5384
RightShoulder  -4.77083e-015 -6.36111e-015 -3.18055e-015
RightArm  35.1337 -25.4588 -3.87567
RightForeArm  -15.0731 0.865547 -12.8509
RightHand  -0.656442 2.59535 1.99586
LeftUpLeg  28.0273 26.4798 4.89249
LeftLeg  -4.02948 -7.2013 -0.980801
LeftFoot  11.4325 0.495612 -1.27591
LeftToes  9.54166e-015 4.2066e-011 -8.07781e-011
152
root  -2.30097 37.5608 58.0783 -15.615 6.67621 9.85845
RightUpLeg  16.3099 18.3964 1.99263
RightLeg  -58.6717 -27.8607 14.3883
RightFoot  12.3115 5.33938 -15.3238
RightToes  -1.27222e-014 -6.36111e-015 6.36111e-015
Spine  -22.8791 -13.3961 -13.1481
Spine1  14.664 -8.6092 27.2462
HEad  6.51361 -13.412 -16.2458
LeftShoulder1  6.36111e-015 -1.33558e-015 6.49777e-015
LeftArm  35.2148 -4.32753 -41.7876
LeftForeArm  -7.29754 -35.3742 3.13371
LeftHand  -2.03121 -3.36016 -14.6134
RightShoulder  -4.77083e-015 -6.36111e-015 -3.18055e-015
RightArm  34.6095 -26.7717 -2.08785
RightForeArm  -16.0124 1.70658 -13.6013
RightHand  -0.538222 2.50466 1.0167
LeftUpLeg  31.0349 28.1786 7.41297
LeftLeg  -8.60908 -7.78415 -0.991554
LeftFoot  12.5883 0.438134 -1.11356
LeftToes  9.54166e-015 4.2066e-011 -8.07781e-011
153
root  -2.36967 37.9052 58.2716 -15.1524 3.56741 10.4262
RightUpLeg  22.21 23.2143 2.88437
RightLeg  -69.385 -21.9785 13.2932
RightFoot  9.05919 5.27105 -14.5396
RightToes  -1.27222e-014 -6.36111e-015 6.36111e-015
Spine  -23.7559 -11.291 -12.3451
Spine1  10.9068 -7.34131 26.1885
HEad  10.0352 -13.111 -16.6422
LeftShoulder1  6.36111e-015 -1.33558e-015 6.49777e-015
LeftArm  36.0674 -0.807815 -40.2341
LeftForeArm  -7.89628 -35.1614 3.25642
LeftHand  -1.90503 -3.10145 -13.3858
RightShoulder  -4.77083e-015 -6.36111e-015 -3.18055e-015
RightArm  33.7711 -27.394 0.589402
RightForeArm  -16.588 1.57765 -13.738
RightHand  -0.188116 2.31844 -1.92623
LeftUpLeg  34.1057 30.1991 10.8709
LeftLeg  -12.8713 -8.69224 -0.908774
LeftFoot  13.5088 0.178984 -0.49295
LeftToes  9.54166e-015 4.2066e-011 -8.07781e-011
154
root  -2.4529 38.1419 58.2347 -14.3778 0.24277 9.63595
RightUpLeg  26.241 26.9457 5.66404
RightLeg  -75.0076 -16.9068 7.49189
RightFoot  5.45069 4.55396 -12.2249
RightToes  -1.27222e-014 -6.36111e-015 6.36111e-015
Spine  -24.0661 -8.20498 -9.26893
Spine1  6.95019 -6.38286 24.054
HEad  12.0967 -12.7154 -16.9816
LeftShoulder1  6.36111e-015 -1.33558e-015 6.49777e-015
LeftArm  36.4809 1.66344 -38.2575
LeftForeArm  -8.8235 -34.6232 3.36624
LeftHand  -1.59507 -2.30891 -11.6211
RightShoulder  -4.77083e-015 -6.36111e-015 -3.18055e-015
RightArm  31.8476 -26.5887 3.77234
RightForeArm  -17.4229 -1.25082 -12.5711
RightHand  0.110801 2.35894 -4.73513
LeftUpLeg  34.7498 29.7307 13.3541
LeftLeg  -14.6928 -8.49144 -0.95938
LeftFoot  13.2926 0.621565 -1.53108
LeftToes  9.54166e-015 4.2066e-011 -8.07781e-011
